Coordinates
version=1
nRows=19
nColumns=33
inDegrees=yes

Units are S.I. units (second, meters, Newtons, ...)
Angles are in degrees.

endheader
time	ground_thorax_rot_x	ground_thorax_rot_y	ground_thorax_rot_z	ground_thorax_tx	ground_thorax_ty	ground_thorax_tz	clav_prot_r	clav_elev_r	scapula_abduction_r	scapula_elevation_r	scapula_upward_rot_r	scapula_winging_r	shoulder_elv_r	plane_of_elev_r	axial_rot_r	elbow_flexion_r	pro_sup_r	wrist_flex_r	wrist_dev_r	clav_prot_l	clav_elev_l	scapula_abduction_l	scapula_elevation_l	scapula_upward_rot_l	scapula_winging_l	shoulder_elv_l	plane_of_elev_l	axial_rot_l	elbow_flexion_l	pro_sup_l	wrist_flex_l	wrist_dev_l	
7.8100	-40.464982	-10.026273	9.701152	-179.118336	874.217360	-8.519326	3.628248	-45.000000	39.857182	-45.000000	-1.577166	610.312206	-2089.108846	22.292970	-180.000000	1444.450929	-62.249743	22.742180	8.473333	13.970630	41.408630	-39.975593	-45.000000	-30.028471	1891.558616	-2437.445818	14.686965	180.000000	-364.196182	-122.758598	9.178954	-22.711702	
7.8200	-40.521629	-9.673776	9.099267	-177.103336	877.077209	-8.478942	3.501665	-45.000000	40.368151	-45.000000	0.132126	610.388719	-2088.879204	22.302912	-180.000000	1444.416262	-62.405612	22.875098	8.548625	13.395969	41.633734	-40.414523	-45.000000	-27.068980	1892.608158	-2437.198995	14.544100	179.999999	-363.546978	-125.014409	9.463374	-22.399133	
7.8300	-40.583544	-9.295445	8.400780	-174.971001	879.894062	-8.427861	3.379831	-45.000000	40.924843	-45.000000	2.001789	610.491361	-2088.656504	22.300708	-180.000000	1444.382819	-62.569516	23.008692	8.627574	12.478050	41.869858	-40.916837	-45.000000	-22.799476	1894.118865	-2436.857113	14.308368	179.999999	-362.488557	-128.041089	9.834741	-21.863195	
7.8400	-40.648878	-8.853785	7.444195	-172.720067	882.629921	-8.372407	3.263367	-45.000000	41.632127	-45.000000	4.293184	610.629818	-2088.448140	22.264739	-180.000000	1444.352554	-62.629730	23.144455	8.688432	10.642173	42.156332	-41.591578	-45.000000	-15.006714	1896.908168	-2436.236692	13.827724	179.999999	-360.353252	-132.963324	10.381467	-20.721935	
7.8500	-40.713177	-8.362340	6.288497	-170.348419	885.247012	-8.316345	3.142519	-45.000000	42.424252	-45.000000	6.890817	610.819575	-2088.254537	22.197261	-180.000000	1444.318987	-62.677279	23.275701	8.745584	8.084253	42.450922	-42.375868	-45.000000	-4.443262	1900.663244	-2435.377789	13.155598	179.999998	-357.413519	-138.955619	11.051863	-19.134014	
7.8600	-40.771515	-7.839406	4.991423	-167.853330	887.709206	-8.258891	2.998910	-45.000000	43.257759	-45.000000	9.701189	611.061518	-2088.071489	22.106632	-180.000000	1444.287879	-62.775005	23.399972	8.806856	4.972418	42.733461	-43.212580	-45.000000	8.228279	1905.122288	-2434.326255	12.350560	179.999996	-353.900549	-145.442538	11.791087	-17.230107	
7.8700	-40.823853	-7.348691	3.788363	-165.232397	889.982912	-8.195750	2.827317	-45.000000	43.957628	-45.000000	12.318063	611.349336	-2087.905009	22.026485	-180.000000	1444.255556	-63.093930	23.517616	8.893779	2.071008	42.917808	-43.930223	-44.999999	19.978820	1909.148628	-2433.320126	11.626762	179.999993	-350.761736	-150.640583	12.438286	-15.540698	
7.8800	-40.871527	-6.906157	2.710627	-162.483307	892.037744	-8.120020	2.623191	-45.000000	44.525151	-45.000000	14.696791	611.668398	-2087.761089	21.961398	-180.000000	1444.225689	-63.612385	23.626321	8.998613	-0.523426	43.004815	-44.515277	-44.999999	30.468635	1912.637018	-2432.400513	11.014897	179.999988	-348.072456	-154.679195	12.963140	-14.093179	
7.8900	-40.919158	-6.561416	1.936501	-159.604839	893.846592	-8.024632	2.387778	-45.000000	44.851784	-45.000000	16.560403	612.003268	-2087.641505	21.921779	-180.000000	1444.190187	-64.425302	23.714694	9.138183	-2.180698	42.960008	-44.854706	-44.999998	37.376847	1914.732710	-2431.768924	10.662883	179.999979	-346.523044	-156.499448	13.262318	-13.266550	
7.9000	-40.972484	-6.306347	1.421053	-156.595714	895.386063	-7.903298	2.124005	-45.000000	45.000000	-45.000000	18.001701	612.334882	-2087.550114	21.900184	-180.000000	1444.154194	-65.450097	23.779238	9.299347	-3.042241	42.827114	-45.000000	-44.999996	41.269916	1915.686254	-2431.411983	10.531200	179.999962	-345.884100	-156.873746	13.377491	-12.923612	
7.9100	-41.038471	-6.143806	1.142332	-153.455158	896.636416	-7.751894	1.851472	-45.000000	45.000000	-45.000000	19.059539	612.658978	-2087.494129	21.888195	-180.000000	1444.121678	-66.639954	23.817274	9.476614	-3.206724	42.642532	-45.000000	-44.999994	42.523329	1915.665792	-2431.329545	10.561361	179.999931	-345.996032	-156.267176	13.352913	-12.972411	
7.9200	-41.119329	-6.022457	0.903511	-150.181729	897.582221	-7.568317	1.588596	-45.000000	45.000000	-45.000000	20.065778	612.956172	-2087.486174	21.879076	-180.000000	1444.107740	-67.875618	23.838938	9.655208	-3.383989	42.484400	-45.000000	-44.999989	43.548588	1915.632095	-2431.369085	10.611479	179.999877	-346.082684	-156.148969	13.339234	-12.987068	
7.9300	-41.214938	-5.944052	0.707583	-146.774384	898.212559	-7.352287	1.333492	-45.000000	45.000000	-45.000000	21.036057	613.223956	-2087.520405	21.864833	-180.000000	1444.117481	-69.216272	23.837014	9.852687	-3.557941	42.373813	-45.000000	-44.999980	44.272827	1915.561046	-2431.547037	10.673997	179.999781	-346.179615	-156.243919	13.354910	-13.004127	
7.9400	-41.322007	-5.899343	0.542246	-143.231801	898.521242	-7.104588	1.085510	-45.000000	45.000000	-45.000000	21.979537	613.450627	-2087.602183	21.860313	-180.000000	1444.159033	-70.706523	23.820829	10.073954	-3.790856	42.307715	-45.000000	-44.999964	44.722702	1915.479468	-2431.859679	10.770161	179.999607	-346.298483	-156.394295	13.404535	-13.039465	
7.9500	-41.437035	-5.892427	0.411829	-139.553303	898.506225	-6.826897	0.835174	-45.000000	45.000000	-45.000000	22.879544	613.647466	-2087.728699	21.851457	-180.000000	1444.226961	-72.370708	23.777855	10.320623	-4.020055	42.284595	-45.000000	-44.999935	44.931348	1915.367096	-2432.278995	10.869032	179.999297	-346.445624	-156.513861	13.474418	-13.096396	
7.9600	-41.554752	-5.907827	0.297499	-135.738875	898.168982	-6.521578	0.582281	-45.000000	45.000000	-45.000000	23.757530	613.807781	-2087.903545	21.845146	-180.000000	1444.321153	-74.231177	23.709011	10.593908	-4.285703	42.289179	-45.000000	-44.999883	44.998298	1915.256017	-2432.778408	10.978811	179.998740	-346.618340	-156.565196	13.554457	-13.167163	
7.9700	-41.672906	-5.946340	0.199385	-131.790231	897.513257	-6.191614	0.314331	-45.000000	45.000000	-45.000000	24.598971	613.950156	-2088.124173	21.820087	-180.000000	1444.432695	-76.297359	23.597578	10.892578	-4.507238	42.314503	-45.000000	-44.999791	44.996951	1915.129769	-2433.315172	11.064991	179.997744	-346.810937	-156.532525	13.624627	-13.243153	
7.9800	-41.787523	-5.997489	0.106277	-127.710874	896.543941	-5.840522	0.029473	-45.000000	45.000000	-45.000000	25.401029	614.078904	-2088.392365	21.777173	-180.000000	1444.558016	-78.567152	23.438861	11.214563	-4.689193	42.349542	-45.000000	-44.999626	44.994539	1915.003754	-2433.870429	11.126449	179.995958	-347.015595	-156.415693	13.670597	-13.311933	
7.9900	-41.896531	-6.066214	0.024451	-123.506465	895.265937	-5.472383	-0.269673	-45.000000	45.000000	-45.000000	26.135155	614.201827	-2088.709689	21.713346	-180.000000	1444.696434	-81.030858	23.226368	11.555325	-4.802071	42.391381	-45.000000	-44.999330	44.990219	1914.867734	-2434.436674	11.151830	179.992761	-347.223754	-156.220965	13.690636	-13.375110	
